<svg xmlns="http://www.w3.org/2000/svg" viewBox="0 0 64 64" fill="none">
  <defs>
    <linearGradient id="a" x1="10" y1="8" x2="54" y2="56" gradientUnits="userSpaceOnUse">
      <stop stop-color="#241920"/>
      <stop offset=".52" stop-color="#6F425E"/>
      <stop offset="1" stop-color="#D19B89"/>
    </linearGradient>
  </defs>
  <rect width="64" height="64" rx="20" fill="url(#a)"/>
  <circle cx="22" cy="22" r="8" fill="white" fill-opacity=".14"/>
  <path d="M23.5 17.5h17v3h-4.5v19.4c0 5.5-3.4 8.6-9.1 8.6-2.4 0-4.7-.6-6.5-1.7l1.4-3.2c1.3.8 2.8 1.2 4.4 1.2 3.5 0 5.1-1.6 5.1-5.1V20.5h-7.8v-3Zm12 9.7h5.9c4.6 0 7.4 2.3 7.4 6.3 0 3.9-2.8 6.4-7.4 6.4h-2.5v7.1h-3.4V27.2Zm5.4 9.8c2.8 0 4.3-1.2 4.3-3.5 0-2.3-1.5-3.4-4.3-3.4h-2V37h2Z" fill="#FFF8F3"/>
</svg>
